#!OML:ASF H:\Terrain\Patient Classification 1\Walking\liu\liu.ASF
:FULLY-SPECIFIED
:DEGREES
130
root 9.087080 15.934200 -19.076000 6.155100 7.922380 6.078360
lowerback -83.496101 -40.986702 -70.752701
upperback -11.918100 -48.870300 18.602901
thorax 41.894798 -25.536800 53.145798
lowerneck -196.860992 -55.162300 -132.145996
upperneck 205.510010 -64.740501 113.837006
head 106.861000 -27.069399 53.436798
rclavicle 0.000000 0.000000
rhumerus -476.546997 57.412498 -825.851990
rradius 323.890015
rwrist -190.928986
rhand -310.911987 -199.622009
rfingers 71.250198
rthumb -43.711899 -498.970978
lclavicle 0.000000 0.000000
lhumerus -321.286987 -246.029999 986.088013
lradius 354.747009
lwrist 50.131500
lhand -151.401001 -254.369995
lfingers 71.250198
lthumb 110.297005 42.532501
rfemur -423.395020 89.455002 53.919300
rtibia 274.407990
rfoot -222.821991 -111.712997
rtoes -208.405991
lfemur 203.290009 12.670099 -265.703003
ltibia -0.000000
lfoot -137.188995 -20.409201
ltoes -93.083199
131
root 9.059710 15.909700 -18.914000 6.150930 8.272640 6.364450
lowerback -80.938904 -42.069302 -74.096298
upperback -12.133900 -50.193100 18.132799
thorax 40.679596 -26.199100 54.507999
lowerneck -196.933990 -55.807800 -132.830994
upperneck 207.087006 -65.299400 112.834000
head 107.518997 -27.500999 53.132301
rclavicle -0.000000 0.000000
rhumerus -477.039978 55.875401 -825.177979
rradius 319.660004
rwrist -190.625992
rhand -307.156006 -214.479996
rfingers 71.250198
rthumb -40.084602 -513.900024
lclavicle -0.000000 0.000000
lhumerus -324.676025 -237.716995 987.507019
lradius 347.048981
lwrist 48.378601
lhand -139.994995 -247.140991
lfingers 71.250198
lthumb 121.295998 49.142799
rfemur -420.372986 81.997803 55.569000
rtibia 278.757996
rfoot -213.714005 -100.974998
rtoes -196.896988
lfemur 209.803009 12.016500 -265.356018
ltibia -0.000000
lfoot -131.139999 -20.368401
ltoes -97.480499
132
root 9.029940 15.887300 -18.745300 6.301240 8.373560 6.324820
lowerback -81.557701 -41.790501 -74.064400
upperback -12.385599 -49.801796 18.606899
thorax 40.740898 -26.003399 55.016800
lowerneck -198.010010 -56.570602 -134.606995
upperneck 206.032013 -65.736198 113.431000
head 107.494003 -27.735600 53.548599
rclavicle -0.000000 -0.000000
rhumerus -477.070984 52.727398 -823.623962
rradius 315.270020
rwrist -188.878006
rhand -288.052002 -283.070007
rfingers 71.250198
rthumb -21.635899 -582.757996
lclavicle -0.000000 -0.000000
lhumerus -326.815979 -230.498016 989.153992
lradius 336.985016
lwrist 44.735397
lhand -134.972000 -243.358002
lfingers 71.250198
lthumb 126.139000 52.632999
rfemur -420.779999 75.598305 61.827503
rtibia 284.766998
rfoot -196.251999 -97.531296
rtoes -205.326004
lfemur 214.440994 13.719501 -261.264008
ltibia -0.000000
lfoot -126.723007 -23.438398
ltoes -97.158203
133
root 9.005460 15.883200 -18.570601 6.392800 8.645650 6.119520
lowerback -82.432007 -41.921700 -71.016899
upperback -11.930200 -50.169201 18.570000
thorax 41.500603 -26.173500 53.139198
lowerneck -200.802994 -56.748699 -132.645996
upperneck 204.622986 -65.945999 112.770004
head 107.436996 -27.655201 52.870102
rclavicle 0.000000 -0.000000
rhumerus -478.981995 51.375698 -823.518005
rradius 314.444000
rwrist -187.100998
rhand -258.973022 -351.427002
rfingers 71.250198
rthumb 6.449280 -651.214966
lclavicle 0.000000 -0.000000
lhumerus -328.726990 -223.463989 988.209961
lradius 328.069000
lwrist 40.763100
lhand -135.906998 -239.979996
lfingers 71.250198
lthumb 125.237000 56.067101
rfemur -420.400024 65.950302 71.348099
rtibia 290.786987
rfoot -168.983002 -101.334999
rtoes -229.929993
lfemur 219.313995 13.842300 -254.911987
ltibia 0.000000
lfoot -121.167999 -29.704800
ltoes -76.834404
134
root 8.984380 15.890400 -18.394300 6.332580 8.887290 5.954520
lowerback -81.084404 -42.484699 -68.723900
upperback -10.920500 -51.212902 18.782801
thorax 41.784702 -26.698000 51.975002
lowerneck -202.877991 -56.741299 -130.200989
upperneck 202.110001 -65.857903 111.309006
head 106.748001 -27.510201 51.826202
rclavicle 0.000000 0.000000
rhumerus -480.299011 52.673801 -824.011963
rradius 315.209015
rwrist -185.164001
rhand -266.987000 -340.092010
rfingers 71.250198
rthumb -1.290380 -639.888977
lclavicle 0.000000 0.000000
lhumerus -329.119995 -211.807007 985.686035
lradius 318.579010
lwrist 34.860001
lhand -132.319000 -237.730011
lfingers 71.250198
lthumb 128.697006 58.101700
rfemur -419.320007 56.688000 79.656403
rtibia 297.281006
rfoot -140.313995 -102.915001
rtoes -232.957001
lfemur 225.832001 14.374000 -249.156006
ltibia 0.000000
lfoot -113.073997 -34.785599
ltoes -65.961601
135
root 8.956850 15.897500 -18.222099 6.317650 9.054780 5.618720
lowerback -79.489197 -42.227501 -65.279198
upperback -10.881000 -51.343597 20.218401
thorax 40.785900 -26.697100 51.639999
lowerneck -199.971008 -57.797600 -133.972000
upperneck 197.694000 -66.805603 113.797997
head 104.982994 -28.019800 53.126701
rclavicle 0.000000 0.000000
rhumerus -481.851013 52.939499 -823.392029
rradius 314.999023
rwrist -184.253006
rhand -304.768005 -290.631989
rfingers 71.250198
rthumb -37.778999 -590.094971
lclavicle 0.000000 0.000000
lhumerus -330.933990 -201.054993 986.593018
lradius 306.359009
lwrist 28.066700
lhand -134.195007 -239.283005
lfingers 71.250198
lthumb 126.888000 56.662201
rfemur -419.770996 51.906502 87.464302
rtibia 304.999023
rfoot -117.350998 -103.492004
rtoes -204.360992
lfemur 231.320984 15.855900 -242.380997
ltibia 0.000000
lfoot -105.237000 -33.237900
ltoes -103.218002
136
root 8.925590 15.899500 -18.046801 6.420620 9.204030 5.279160
lowerback -80.630798 -41.301098 -60.530602
upperback -10.790401 -50.439701 20.052299
thorax 40.963100 -26.172400 48.849701
lowerneck -198.367996 -58.902897 -135.899002
upperneck 195.492004 -68.577896 116.903000
head 104.350998 -28.670700 54.274902
rclavicle -0.000000 0.000000
rhumerus -484.270996 50.880299 -824.901978
rradius 313.204010
rwrist -187.903000
rhand -304.407990 -296.101013
rfingers 71.250198
rthumb -37.431801 -595.570007
lclavicle -0.000000 0.000000
lhumerus -332.709015 -197.234985 986.215942
lradius 292.490997
lwrist 23.436001
lhand -142.302994 -244.192017
lfingers 71.250198
lthumb 119.069992 52.221901
rfemur -420.906006 47.572598 95.478699
rtibia 313.570984
rfoot -100.973999 -104.383003
rtoes -191.933990
lfemur 234.839005 17.402100 -235.393997
ltibia -0.000000
lfoot -96.734894 -31.593300
ltoes -129.906998
137
root 8.896960 15.893400 -17.867901 6.468040 9.155440 5.091060
lowerback -81.651001 -39.980701 -57.367802
upperback -10.186300 -48.846302 18.999300
thorax 41.592598 -25.346100 46.104599
lowerneck -201.298004 -59.275200 -134.251007
upperneck 194.985992 -69.598000 118.542999
head 104.870995 -28.733900 54.416100
rclavicle 0.000000 0.000000
rhumerus -486.427002 49.620800 -827.770020
rradius 309.554016
rwrist -187.553009
rhand -273.976990 -326.148987
rfingers 71.250198
rthumb -8.042290 -625.931030
lclavicle 0.000000 0.000000
lhumerus -333.811981 -191.488983 983.471985
lradius 279.781006
lwrist 19.381100
lhand -144.087006 -245.711990
lfingers 71.250198
lthumb 117.349998 50.801201
rfemur -422.369019 42.150101 103.068001
rtibia 323.767029
rfoot -87.222504 -100.632004
rtoes -206.453003
lfemur 239.080994 20.684200 -229.682007
ltibia 0.000000
lfoot -88.498695 -33.361900
ltoes -129.619003
138
root 8.870980 15.880400 -17.698900 6.504140 9.004950 4.922210
lowerback -79.962097 -37.860001 -54.708599
upperback -10.647600 -46.347000 18.797600
thorax 39.618801 -24.000101 44.862400
lowerneck -202.227997 -59.990803 -136.063004
upperneck 194.647995 -70.758301 122.025993
head 105.320999 -28.983200 55.835899
rclavicle -0.000000 -0.000000
rhumerus -488.166992 47.333599 -828.187012
rradius 306.010010
rwrist -180.845001
rhand -260.000000 -329.992004
rfingers 71.250198
rthumb 5.457350 -629.781982
lclavicle -0.000000 -0.000000
lhumerus -337.631989 -178.005997 980.990967
lradius 271.467010
lwrist 14.265300
lhand -137.742996 -242.630997
lfingers 71.250198
lthumb 123.466995 53.523796
rfemur -425.241028 35.813602 110.829002
rtibia 335.577026
rfoot -74.081604 -91.210602
rtoes -219.958984
lfemur 243.403000 24.933300 -224.230988
ltibia 0.000000
lfoot -77.731796 -35.249702
ltoes -134.485992
139
root 8.847250 15.866500 -17.533600 6.548030 8.922190 4.971530
lowerback -77.817604 -37.143501 -54.623100
upperback -10.891600 -45.513901 18.619400
thorax 38.042198 -23.541000 44.873100
lowerneck -201.578995 -59.995598 -136.515991
upperneck 193.959015 -70.851402 122.844002
head 105.019997 -28.987900 56.188400
rclavicle 0.000000 0.000000
rhumerus -487.701996 47.772102 -828.734985
rradius 304.631012
rwrist -179.779999
rhand -266.542999 -305.173004
rfingers 71.250198
rthumb -0.862209 -604.970032
lclavicle 0.000000 0.000000
lhumerus -338.007019 -152.125000 972.654053
lradius 262.464996
lwrist 5.438500
lhand -62.256199 -185.785004
lfingers 71.250198
lthumb 196.154999 104.518997
rfemur -427.151978 29.669001 115.231003
rtibia 347.187988
rfoot -64.395996 -79.626396
rtoes -220.893005
lfemur 247.922989 28.334999 -221.156006
ltibia 0.000000
lfoot -61.869602 -36.029900
ltoes -136.085999
140
root 8.819380 15.861900 -17.362900 6.557970 8.851550 5.114550
lowerback -76.774506 -37.147301 -55.844597
upperback -10.288200 -45.437500 17.829700
thorax 38.110699 -23.532101 44.782101
lowerneck -201.394989 -59.550499 -133.798004
upperneck 191.472000 -70.475304 121.227997
head 103.853996 -28.787300 55.097298
rclavicle 0.000000 0.000000
rhumerus -486.708008 49.369896 -830.263977
rradius 302.835022
rwrist -180.194000
rhand -278.492004 -268.300995
rfingers 71.250198
rthumb -12.402400 -568.062012
lclavicle 0.000000 0.000000
lhumerus -335.895996 -125.013000 960.891052
lradius 250.832993
lwrist -5.281920
lhand -22.643799 -166.625992
lfingers 71.250198
lthumb 234.197998 119.322006
rfemur -427.924988 26.935999 116.768997
rtibia 357.687988
rfoot -57.537800 -68.567497
rtoes -204.610992
lfemur 252.942017 31.546700 -219.160004
ltibia -0.000000
lfoot -46.195599 -34.913498
ltoes -129.835999
141
root 8.786840 15.865700 -17.191000 6.519210 8.654820 5.031680
lowerback -75.001099 -35.349499 -54.652901
upperback -10.524100 -43.226299 17.396000
thorax 36.478600 -22.366100 44.049400
lowerneck -201.103989 -60.497898 -133.776001
upperneck 188.979004 -71.782501 121.828003
head 103.126999 -29.322800 55.027699
rclavicle -0.000000 -0.000000
rhumerus -487.667999 45.710102 -828.182007
rradius 299.716003
rwrist -174.433990
rhand -284.674011 -252.145996
rfingers 71.250198
rthumb -18.372900 -551.864014
lclavicle -0.000000 -0.000000
lhumerus -337.149994 -105.909996 952.175964
lradius 241.391998
lwrist -14.976400
lhand -0.154470 -161.817001
lfingers 71.250198
lthumb 255.755997 121.211998
rfemur -428.325989 24.954901 122.011002
rtibia 367.059998
rfoot -50.936398 -59.697800
rtoes -190.473007
lfemur 257.666992 36.201702 -214.829010
ltibia -0.000000
lfoot -30.779800 -32.061802
ltoes -132.124008
142
root 8.754680 15.873800 -17.018700 6.529820 8.475240 4.903500
lowerback -73.061302 -33.922501 -53.603703
upperback -11.185301 -41.542603 17.911800
thorax 34.466702 -21.454502 44.333000
lowerneck -199.601990 -61.775700 -137.434998
upperneck 185.238983 -73.161896 125.335999
head 102.029999 -29.885599 56.633400
rclavicle -0.000000 0.000000
rhumerus -488.414001 44.339298 -826.052002
rradius 297.289001
rwrist -170.501007
rhand -286.433990 -258.894989
rfingers 71.250198
rthumb -20.072802 -558.597961
lclavicle -0.000000 0.000000
lhumerus -341.833008 -89.325401 946.239990
lradius 228.997009
lwrist -44.609398
lhand -33.285099 -187.904999
lfingers 71.250198
lthumb 223.987000 99.308899
rfemur -427.263977 21.021299 129.255997
rtibia 374.774017
rfoot -48.355297 -53.754601
rtoes -196.432983
lfemur 261.742004 40.678703 -209.971008
ltibia -0.000000
lfoot -14.596700 -30.287899
ltoes -146.985992
